#!OML:ASF H:\ColoradoDance\Project 1\Capture day 1\Session 8\male.ASF
:FULLY-SPECIFIED
:DEGREES
32
upperback 4.027210 -0.921747 1.924840
rfoot -5.218610 -1.349900
lradius 13.665600
lthumb 11.268100 32.436001
rradius 16.901400
lwrist -19.738701
rhand -14.574100 -3.837270
rhumerus -40.340000 3.428260 -38.424000
lowerneck -6.603410 -1.804900 0.995181
lhand -14.892800 2.758620
ltibia 11.120400
head 5.065400 -1.298760 -0.192778
rwrist 7.735320
lfingers 7.125020
rtoes -19.893801
lowerback 4.512930 -0.628562 0.821670
rfingers 7.125020
lclavicle -0.000000 -0.000000
upperneck 13.265700 -2.733270 0.469272
rfemur -58.444599 14.969800 5.117790
thorax 1.628480 -0.507199 1.542540
rclavicle -0.000000 -0.000000
rtibia 36.778599
lfoot 2.502790 -0.119967
lhumerus -34.702099 6.188420 28.141300
rthumb 11.575500 -33.497601
root -0.583111 18.962299 -7.575610 -321.510010 -82.512901 -16.136400
ltoes -29.595200
lfemur 4.968430 -12.044200 -11.181800
33
upperback 1.576580 -0.449649 1.851190
rfoot -7.297910 -5.187750
lradius 13.067100
lthumb 5.624790 36.009899
rradius 12.955200
lwrist -24.425400
rhand -26.251600 -5.960740
rhumerus -66.972298 -10.470900 -34.233799
lowerneck -8.762670 -1.767040 1.729440
lhand -20.740601 6.104510
ltibia 1.987700
head 6.801900 -1.364040 -0.761862
rwrist 11.820700
lfingers 7.125020
rtoes -13.538000
lowerback 3.802800 -0.353818 1.110630
rfingers 7.125020
lclavicle -0.000000 -0.000000
upperneck 17.687700 -2.779000 -0.724437
rfemur -60.723900 7.537070 17.533600
thorax -0.507829 -0.239817 1.293600
rclavicle -0.000000 -0.000000
rtibia 52.912601
lfoot -3.046830 0.163349
lhumerus -57.437599 13.402500 18.816200
rthumb 0.302716 -35.940300
root -0.795061 18.296000 -7.327930 -310.000000 -83.237198 -32.425701
ltoes -29.311399
lfemur 17.964899 -10.329000 -12.195100
34
upperback -1.007260 -1.963740 1.301700
rfoot -22.228201 -10.036600
lradius 6.492280
lthumb 9.365940 34.472401
rradius 12.416800
lwrist -35.640900
rhand -25.453300 2.888990
rhumerus -77.237503 -27.517099 -33.939301
lowerneck -7.594570 -0.579545 2.929730
lhand -16.864599 4.700500
ltibia 10.423100
head 6.608390 -0.612216 -1.039970
rwrist 15.581000
lfingers 7.125020
rtoes -5.436040
lowerback 1.300000 -1.501760 1.324680
rfingers 7.125020
lclavicle 0.000000 0.000000
upperneck 17.698299 -1.226500 -1.388620
rfemur -55.923000 2.150300 25.079300
thorax -1.759320 -0.992879 0.647173
rclavicle 0.000000 0.000000
rtibia 63.032101
lfoot 5.149690 0.685039
lhumerus -66.838699 36.965900 22.357700
rthumb 1.073800 -27.088100
root -2.450680 17.771200 -7.393570 -316.855011 -83.215401 -28.843201
ltoes -24.317101
lfemur 21.484301 -9.652000 -12.733100
35
upperback -1.813170 -3.076700 0.898274
rfoot -23.684700 -9.966760
lradius 16.036699
lthumb 11.944200 15.565600
rradius 15.992500
lwrist -5.403330
rhand -33.598099 11.661100
rhumerus -13.657300 -14.667600 -83.303497
lowerneck -6.535920 1.434680 4.703820
lhand -14.191700 -14.073700
ltibia 50.299099
head 4.941530 0.798985 -1.150140
rwrist 16.670900
lfingers 7.125020
rtoes -5.505560
lowerback 1.140700 -2.344950 2.029110
rfingers 7.125020
lclavicle 0.000000 0.000000
upperneck 12.714900 1.470120 -1.504410
rfemur -43.435902 5.715190 27.502100
thorax -2.557120 -1.571850 -0.108230
rclavicle 0.000000 0.000000
rtibia 55.233101
lfoot 0.330488 -2.429950
lhumerus -7.073630 15.625500 84.342300
rthumb -6.791640 -18.209900
root -3.801930 18.394501 -7.474240 -281.744995 -84.567001 -66.604897
ltoes -28.316700
lfemur -3.014570 -6.883760 -10.222500
36
upperback -0.736892 -2.525330 1.320150
rfoot -23.274000 -12.090800
lradius 25.160400
lthumb 15.158900 16.224400
rradius 32.112301
lwrist 16.528000
rhand -50.038101 33.406898
rhumerus 34.265701 4.942640 -81.947098
lowerneck -4.945140 -0.625124 2.532500
lhand -10.856300 -13.200300
ltibia 54.875999
head 3.070750 -0.470338 -0.607929
rwrist -14.696600
lfingers 7.125020
rtoes -4.425610
lowerback 2.868520 -1.974530 2.340070
rfingers 7.125020
lclavicle 0.000000 -0.000000
upperneck 6.935910 -1.034040 -0.380571
rfemur -30.533400 2.648850 29.294901
thorax -2.405740 -1.288070 0.170230
rclavicle 0.000000 -0.000000
rtibia 44.920601
lfoot -10.053500 6.245640
lhumerus 36.504299 -5.810700 91.566200
rthumb -22.625700 4.713000
root -4.694770 19.020399 -7.462420 -310.588989 -81.111298 -41.399399
ltoes -8.408250
lfemur -42.047100 0.107000 -10.644600
37
upperback -1.908050 1.493640 1.471350
rfoot -23.979200 -10.809800
lradius 53.465500
lthumb 18.236401 19.075701
rradius 59.594101
lwrist 37.752499
rhand -24.739500 18.501801
rhumerus 42.621201 5.086250 -83.660202
lowerneck -2.827010 -1.022120 1.799760
lhand -7.659550 -10.089400
ltibia 24.195299
head 2.556130 -0.711848 -0.861691
rwrist -35.016602
lfingers 7.125020
rtoes -5.694410
lowerback 0.909432 1.081310 1.906330
rfingers 7.125020
lclavicle 0.000000 -0.000000
upperneck 6.614810 -1.393170 -1.594130
rfemur -12.428200 6.391170 28.646799
thorax -2.457680 0.714629 0.397115
rclavicle 0.000000 -0.000000
rtibia 31.521299
lfoot 14.211100 28.243299
lhumerus 47.608299 -7.577670 84.526100
rthumb 1.763150 -11.470700
root -6.671850 19.470200 -7.100740 -261.144989 -84.164398 -94.415604
ltoes 9.198620
lfemur -38.581501 -19.383499 4.687840
38
upperback -3.589330 0.927117 0.047418
rfoot -24.345600 -13.976100
lradius 71.673798
lthumb 13.016900 13.730700
rradius 75.724197
lwrist 45.445400
rhand -24.810101 13.369700
rhumerus 46.279900 3.748590 -81.964600
lowerneck -3.957470 -0.414627 2.674200
lhand -13.079200 -15.843200
ltibia 26.240499
head 3.359570 -0.333434 -0.843532
rwrist -52.787201
lfingers 7.125020
rtoes -11.091300
lowerback -1.616470 0.735349 -0.026454
rfingers 7.125020
lclavicle -0.000000 0.000000
upperneck 8.309490 -0.713212 -1.056090
rfemur 0.203563 12.712200 24.794901
thorax -2.777810 0.441043 0.056822
rclavicle -0.000000 0.000000
rtibia 23.917101
lfoot -3.705320 19.102900
lhumerus 50.807701 -1.418420 81.464203
rthumb 1.695000 -16.603300
root -8.894720 19.540199 -6.505970 -230.759995 -86.514603 -125.464996
ltoes -15.465900
lfemur -28.293301 -21.872400 -3.603330
39
upperback -4.547120 0.921341 0.558872
rfoot -8.044720 -7.040840
lradius 84.375702
lthumb 10.835900 11.783700
rradius 90.660004
lwrist 51.203999
rhand -25.277901 13.601400
rhumerus 47.717098 1.880810 -80.734200
lowerneck -4.043450 -0.202881 2.829590
lhand -15.341000 -17.916700
ltibia 26.808201
head 3.140190 -0.186604 -0.988549
rwrist -62.400902
lfingers 7.125020
rtoes -18.068399
lowerback -2.069280 0.745652 2.225360
rfingers 7.125020
lclavicle 0.000000 -0.000000
upperneck 7.601540 -0.396733 -1.470680
rfemur 3.242980 11.004100 22.586399
thorax -3.490840 0.354976 -0.677229
rclavicle 0.000000 -0.000000
rtibia 21.963699
lfoot -0.400315 21.857500
lhumerus 50.892300 -0.302269 79.255402
rthumb 1.243200 -16.374800
root -10.328700 20.185801 -5.942970 -234.266006 -85.405197 -121.042000
ltoes -8.014800
lfemur -25.150999 -23.325899 -6.492610
40
upperback -4.982780 1.657100 0.386517
rfoot 2.934050 -6.680230
lradius 95.130402
lthumb 13.004100 11.624900
rradius 100.883003
lwrist 60.932098
rhand -23.888201 14.614400
rhumerus 49.686001 1.727770 -82.914497
lowerneck -4.215460 0.178442 4.009950
lhand -13.092500 -17.949800
ltibia 26.280001
head 3.278090 0.057428 -1.395210
rwrist -72.362602
lfingers 7.125020
rtoes -12.918700
lowerback -2.076700 1.306200 3.292480
rfingers 7.125020
lclavicle -0.000000 0.000000
upperneck 7.836990 0.073216 -2.114950
rfemur 2.877740 10.831100 21.829300
thorax -3.889630 0.662850 -1.461360
rclavicle -0.000000 0.000000
rtibia 24.577400
lfoot -1.282880 18.447399
lhumerus 52.145599 -0.840809 78.215698
rthumb 2.585340 -15.349700
root -11.264700 20.413300 -5.505090 -217.257996 -83.058701 -137.764999
ltoes -12.396000
lfemur -21.254801 -21.226900 -7.708550
41
upperback -5.303060 1.236980 0.265126
rfoot 7.581980 -7.503850
lradius 102.007004
lthumb 13.305600 11.014400
rradius 106.803001
lwrist 62.338100
rhand -23.699301 15.591200
rhumerus 49.841499 2.579260 -82.061996
lowerneck -4.467520 -0.003127 3.800180
lhand -12.779600 -18.540800
ltibia 26.761999
head 3.251880 -0.065154 -1.331850
rwrist -77.052498
lfingers 7.125020
rtoes -9.504840
lowerback -2.145080 1.000840 2.980700
rfingers 7.125020
lclavicle -0.000000 0.000000
upperneck 7.651460 -0.168977 -2.007270
rfemur 3.247050 11.548100 20.726900
thorax -4.208820 0.449520 -1.408980
rclavicle -0.000000 0.000000
rtibia 24.333099
lfoot -1.861310 19.102400
lhumerus 52.856701 -2.786930 80.447304
rthumb 2.767760 -14.370600
root -11.814600 20.495501 -5.234440 -222.557007 -84.018898 -131.811005
ltoes -9.799440
lfemur -20.718901 -23.096800 -9.397840
42
upperback -5.441280 1.359170 -0.042186
rfoot 8.509960 -10.144900
lradius 100.597000
lthumb 14.281100 10.739200
rradius 106.112999
lwrist 62.807800
rhand -22.830500 16.061899
rhumerus 50.422001 2.502360 -81.871201
lowerneck -4.054480 -0.331780 3.600520
lhand -11.767400 -18.749701
ltibia 27.271700
head 3.032250 -0.274910 -1.295590
rwrist -76.590599
lfingers 7.125020
rtoes -8.734750
lowerback -1.644420 1.084700 2.706420
rfingers 7.125020
lclavicle 0.000000 -0.000000
upperneck 7.283830 -0.581317 -1.979570
rfemur 3.368930 11.504800 20.803801
thorax -4.629890 0.508239 -1.585840
rclavicle 0.000000 -0.000000
rtibia 24.408001
lfoot -2.266710 18.285601
lhumerus 54.076698 -4.171450 81.996002
rthumb 3.606820 -13.887400
root -11.963800 20.488800 -5.142550 -230.481995 -84.868896 -123.516998
ltoes -10.378800
lfemur -21.179701 -24.307301 -9.476670
43
upperback -5.363620 1.271170 0.007357
rfoot 8.453190 -9.309470
lradius 98.892700
lthumb 14.368100 10.861800
rradius 104.304001
lwrist 63.730598
rhand -23.113501 16.140800
rhumerus 50.391899 2.093080 -81.400497
lowerneck -3.743090 -0.585677 3.584410
lhand -11.677200 -18.621000
ltibia 26.945400
head 2.847090 -0.439372 -1.223540
rwrist -76.647499
lfingers 7.125020
rtoes -10.801000
lowerback -1.492570 1.011000 2.730390
rfingers 7.125020
lclavicle 0.000000 -0.000000
upperneck 6.945190 -0.925470 -1.752310
rfemur 2.773580 10.702900 21.403700
thorax -4.639410 0.467135 -1.548270
rclavicle 0.000000 -0.000000
rtibia 25.306999
lfoot -5.009120 17.953199
lhumerus 54.078800 -4.355120 82.143097
rthumb 3.333500 -13.812800
root -11.916500 20.439699 -5.128850 -236.386993 -84.477600 -117.517998
ltoes -10.498900
lfemur -21.065800 -24.622601 -8.397230
44
upperback -5.469430 1.135720 -0.114979
rfoot 6.006080 -8.934500
lradius 98.069504
lthumb 15.009100 10.328800
rradius 104.308998
lwrist 63.621201
rhand -22.895500 16.734400
rhumerus 50.397099 1.635390 -80.747398
lowerneck -3.847110 -0.676168 3.402040
lhand -11.011900 -19.107201
ltibia 25.513901
head 2.893430 -0.501054 -1.098230
rwrist -76.074600
lfingers 7.125020
rtoes -11.668900
lowerback -1.827770 0.925647 2.566340
rfingers 7.125020
lclavicle -0.000000 0.000000
upperneck 7.035960 -1.061180 -1.445580
rfemur 2.439070 9.858340 21.486000
thorax -4.566540 0.401277 -1.575050
rclavicle -0.000000 0.000000
rtibia 26.812599
lfoot -9.497330 12.949500
lhumerus 54.068298 -4.771760 82.766403
rthumb 3.544050 -13.215900
root -11.928800 20.321301 -5.123130 -243.013000 -84.794800 -110.867996
ltoes -0.843363
lfemur -20.140301 -25.116800 -7.339970
